<svg id="Layer_1" data-name="Layer 1" xmlns="http://www.w3.org/2000/svg" viewBox="0 0 601.94 65.42"><defs><style>.cls-1{fill:#046f46;}.cls-2{fill:#006f46;}</style></defs><title>wfm-logo</title><path class="cls-1" d="M182.29,53.43a1.76,1.76,0,0,0-1.54,1.08c-.07.1-.17.36-.49,1-.7,1.48-2.13,2.11-4.16,2.11h-5.65a9.16,9.16,0,0,1-3.37-.39c-.9-.35-1.08-1-1.08-4v-7.2c0-1.27.18-1.82.52-2.06s.68-.21,2.31-.21h2.62c2.39,0,2.73.17,2.9,1.3l.06.38c.17,1,.68,1.47,1.53,1.47,1.2,0,1.59-.68,1.59-2.67V39.52c0-2-.39-2.67-1.59-2.67-.85,0-1.36.46-1.53,1.42l0,.35c-.17,1.14-.52,1.31-2.9,1.31h-2.64c-1.63,0-2.05,0-2.31-.22s-.52-.78-.52-2.05V30.91c0-3,.34-3.42,3.45-3.42h5.35c2.64,0,3.78.18,4.34,1.64a7.69,7.69,0,0,0,.56,1.22,1.48,1.48,0,0,0,1.46.89c1,0,1.55-.79,1.24-2.25l-.8-3.94c-.23-1-.87-1.43-2-1.43H156.9c-1.91,0-2.61.41-2.61,1.67a1.58,1.58,0,0,0,1.47,1.58h1.14a1.08,1.08,0,0,1,.91.85,5.29,5.29,0,0,1,.23,2.22v25.4a5.37,5.37,0,0,1-.23,2.27,1,1,0,0,1-.91.73h-1.14a1.48,1.48,0,0,0-1.41,1.53c0,1.27.64,1.65,2.55,1.65h23.73c1.15,0,1.79-.38,2-1.42l.88-4.41c.3-1.46-.21-2.25-1.24-2.25"/><path class="cls-1" d="M141.49,57.65c-2.28,0-3.15-.11-3.73-.51s-.77-1-.77-3.47V29.83a6.05,6.05,0,0,1,.16-2.22,1.23,1.23,0,0,1,1.19-.74h1.24a1.54,1.54,0,0,0,1.5-1.58c0-1.26-.69-1.67-2.74-1.67H127.85c-1.95,0-2.64.41-2.64,1.67a1.54,1.54,0,0,0,1.54,1.58h1.1a1,1,0,0,1,1,.74,5.29,5.29,0,0,1,.22,2.22V55.51a4.85,4.85,0,0,1-.22,2.1,1.12,1.12,0,0,1-1,.73h-1.1a1.48,1.48,0,0,0-1.42,1.53c0,1.27.63,1.64,2.52,1.64h21.37c1.15,0,1.79-.38,2-1.42l.87-4.42c.31-1.45-.21-2.24-1.24-2.24a1.76,1.76,0,0,0-1.53,1.07c-.07.12-.17.37-.49,1-.7,1.48-2.13,2.11-4.16,2.11Z"/><path class="cls-1" d="M50.54,26.81c-1,.14-1.59.77-2.2,2.78L39.28,58.73c-.81,2.78-1.59,3.57-3.28,3.57s-2.55-.73-3.24-2.83c0,0-4.68-14-4.83-14.45s-.64-.47-.78,0S22,59.47,22,59.47a5.77,5.77,0,0,1-1.15,2.22,3.43,3.43,0,0,1-1.93.61c-1.65,0-2.45-.68-3.24-2.83L4.52,29.59c-.84-2.33-1.11-2.61-2.93-3C.38,26.36,0,26,0,25.05s.6-1.48,1.91-1.48H13.64c1.29,0,1.87.51,1.87,1.54s-.58,1.34-2,1.47c-1.25.11-1.76.51-1.76,1.42a4,4,0,0,0,.2,1.26l.45,1.3s6.27,17.76,7.27,20.61c.16.46.67.44.85-.07,1.1-3.16,4.1-11.87,4.21-12.23a5.22,5.22,0,0,0,.08-3.21c-.13-.41-2.05-6.07-2.05-6.07a11.66,11.66,0,0,0-.47-1.31c-.33-.82-.79-1.13-2.11-1.47-1.16-.29-1.61-.68-1.61-1.52,0-1.09.65-1.72,2-1.72H31.64c1.3,0,1.92.51,1.92,1.54s-.57,1.34-1.84,1.52c-1.51.18-1.92.52-1.92,1.54a7.4,7.4,0,0,0,.59,2.39S35.88,48,36.76,50.7c.16.51.65.4.79-.05.86-2.79,6.29-21.06,6.29-21.06a4.84,4.84,0,0,0,.23-1.36c0-.86-.61-1.31-2-1.48s-1.83-.68-1.83-1.59c0-1.14.65-1.59,2.16-1.59H62.1c1.87,0,2.49.39,2.49,1.63a1.49,1.49,0,0,1-1.41,1.61H62.1a1.28,1.28,0,0,0-1.09.72,8.91,8.91,0,0,0-.15,2.23v7.33c0,2.62.22,2.84,2.32,2.84H70.9c1.13,0,1.71-.18,2-.51s.25-.56.25-2.67v-7A7.12,7.12,0,0,0,73,27.53a1.22,1.22,0,0,0-1-.72H70.9a1.55,1.55,0,0,1-1.55-1.61c0-1.24.69-1.63,2.64-1.63H82.31c1.93,0,2.62.39,2.62,1.63a1.54,1.54,0,0,1-1.47,1.61H82.31a1.14,1.14,0,0,0-1,.72,6.05,6.05,0,0,0-.2,2.23v25.5a6.29,6.29,0,0,0,.2,2.28,1.07,1.07,0,0,0,1,.68h1.15a1.52,1.52,0,0,1,1.47,1.58c0,1.26-.62,1.65-2.62,1.65H72c-1.95,0-2.56-.39-2.56-1.65a1.57,1.57,0,0,1,1.47-1.58H72a1.25,1.25,0,0,0,1-.68,7.66,7.66,0,0,0,.14-2.28V47c0-2.11,0-2.33-.25-2.67s-.88-.51-2-.51H63.18c-2.1,0-2.32.22-2.32,2.83v8.63A9.27,9.27,0,0,0,61,57.54a1.21,1.21,0,0,0,1.09.68h1.08a1.51,1.51,0,0,1,1.37,1.65c0,1.19-.64,1.58-2.45,1.58H51.75c-1.91,0-2.6-.39-2.6-1.65a1.57,1.57,0,0,1,1.47-1.58h1.13a1,1,0,0,0,1-.68,5.89,5.89,0,0,0,.18-2.28V29.76c0-2.89-1.36-3.09-2.36-3"/><path class="cls-1" d="M108.89,26.52c4.88,1.88,6.83,7.18,6.83,15.4,0,10-4.09,16.31-10.62,16.31-6.7,0-10.67-6.11-10.67-16.19,0-6.5.93-11.62,5.52-16.12s8.89-3.86,13.07-9.26c1.77-2.29,1.75-4.25.4-4.63s-2.08,1.31-3.32,2.12c-4.52,3-9.64.2-12.37-2.88a8.62,8.62,0,0,0-8.56-2.54c-.93.2-1.44-.53-.43-1.3,2.31-1.76,7-1.88,10,.76,2.49,2.26,5.82,4.05,8.28,3.58,1.47-.27,1.6-2-.08-2.56-4.67-1.66-4.21-7-10.64-8.81-7.58-2.17-14.44,4.95-16.34,12-.55,2,.67,3.19,2.57,2.37,6.31-2.71,7.87,1.07,13.23,3.19a13,13,0,0,0,6.85.42c1.32-.26,1.33,1.06.58,1.31a37.28,37.28,0,0,0-9.43,4.71C88.53,27.86,85.53,34,85.53,42c0,12.4,7.65,20.52,19.4,20.52,12,0,19.68-8.12,19.68-20.81,0-7.3-2.32-12.74-7-16.17-2.7-2-5.15-2.84-7.66-2.54-3,.36-3.45,2.66-1.09,3.54"/><path class="cls-1" d="M366.67,43.66c-1.82-1.87-3.3-3-7.78-6.13l-2.81-2a11.82,11.82,0,0,1-2.6-2.61,3.86,3.86,0,0,1-.62-2.33c0-2.33,1.7-3.82,4.32-3.82a8.84,8.84,0,0,1,5.34,1.82,9.1,9.1,0,0,1,2.7,3.07c.53.73.9,1,1.51,1a1.48,1.48,0,0,0,1.64-1.35,2.24,2.24,0,0,0-.11-.8l-1.36-6.14c-.23-1-.76-1.58-1.6-1.58a1.65,1.65,0,0,0-1.2.46,2.54,2.54,0,0,1-1.3.51,3.81,3.81,0,0,1-.77-.12c-.8-.17-1.27-.28-1.45-.34a22.76,22.76,0,0,0-4.89-.51c-6.25,0-10.44,3.64-10.44,9.14a9,9,0,0,0,2.16,6c1.76,2,2.27,2.37,7.64,6.14a33.06,33.06,0,0,1,6,4.87,6.33,6.33,0,0,1,1.85,4.26c0,3-2.52,5.07-6.21,5.07a10.49,10.49,0,0,1-8.39-4.49l-.82-1.13a1.76,1.76,0,0,0-3.21,1,4.85,4.85,0,0,0,.14,1.14l1.43,5.68c.34,1.36.81,1.88,1.76,1.88a1.89,1.89,0,0,0,1.31-.52,1.56,1.56,0,0,1,1.22-.56,4.88,4.88,0,0,1,1.23.27,20.8,20.8,0,0,0,6,.81c7.5,0,12.39-4.33,12.39-10.9a11.24,11.24,0,0,0-3.07-7.74"/><path class="cls-1" d="M232.5,28.91,231.7,25c-.23-1-.88-1.42-2-1.42H205.06c-1.91,0-2.61.41-2.61,1.66a1.58,1.58,0,0,0,1.46,1.59h1.15a1.09,1.09,0,0,1,.91.85,5.44,5.44,0,0,1,.23,2.22V55.25a6.64,6.64,0,0,1-.19,2.22,1.1,1.1,0,0,1-.95.74H203.9a1.56,1.56,0,0,0-1.47,1.59c0,1.25.68,1.64,2.63,1.64h10.45c2.09,0,2.78-.39,2.78-1.64a1.52,1.52,0,0,0-1.5-1.59h-1.28a1.44,1.44,0,0,1-1.21-.74,6.76,6.76,0,0,1-.14-2.22V46c0-1.28.18-1.83.52-2.06s.68-.22,2.31-.22h4.68c2.39,0,2.73.17,2.9,1.31l.06.37c.17,1,.68,1.48,1.53,1.48,1.2,0,1.59-.68,1.59-2.67V39.44c0-2-.39-2.67-1.59-2.67-.85,0-1.36.45-1.53,1.42l0,.35c-.17,1.14-.51,1.31-2.9,1.31H217c-1.63,0-2,0-2.31-.22s-.52-.78-.52-2.06V30.83c0-3,.35-3.43,3.45-3.43h7.29c2.64,0,3.79.19,4.35,1.64a7.53,7.53,0,0,0,.56,1.23,1.47,1.47,0,0,0,1.46.88c1,0,1.55-.78,1.24-2.24"/><path class="cls-1" d="M287.92,22.79c-9.32,0-15.87,5.16-17.95,13.67,0,0,0,0,0,0-.18.93-1,1-1.22,0-2-8.51-8.7-13.73-18.06-13.73-11.4,0-18.66,7.72-18.66,19.86,0,11.86,7.32,19.63,18.55,19.63,9.37,0,16-5.15,18.09-13.6l0-.1c.2-1,1.05-.93,1.23,0a.64.64,0,0,0,.06.18c2.11,8.34,8.66,13.51,17.82,13.51,11.52,0,18.84-7.77,18.84-19.92,0-11.91-7.38-19.57-18.72-19.57m-37.19,35.4c-6.41,0-10.21-5.84-10.21-15.48,0-9.88,3.86-15.83,10.1-15.83S260.88,33,260.88,42.59,257,58.19,250.73,58.19Zm37.25,0c-6.42,0-10.22-5.84-10.22-15.48,0-9.88,3.86-15.83,10.1-15.83S298.13,33,298.13,42.59,294.21,58.19,288,58.19Z"/><path class="cls-1" d="M337.81,27.81c-3.48-3.51-7.88-5-15-5a90,90,0,0,0-13.37.88c-1.66.24-2.51.41-2.51,1.66a1.46,1.46,0,0,0,1.35,1.57h1.16a1.12,1.12,0,0,1,1,.75,7.45,7.45,0,0,1,.18,2.23V55.14a7.5,7.5,0,0,1-.18,2.23,1.11,1.11,0,0,1-1,.74h-1.16A1.46,1.46,0,0,0,307,59.69c0,1.24.85,1.42,2.51,1.66a92.09,92.09,0,0,0,13.37.87c6.2,0,10.31-1.2,13.58-3.85,4.22-3.35,6.53-9,6.53-15.9,0-6.14-1.81-11.3-5.15-14.66M323.43,58.19c-2.86-.16-4.88-.35-4.88-3.6V30.79c0-3,.73-3.67,3.18-4.07.64-.11,1.93-.19,1.93-.19,6.75,0,10.76,5.87,10.76,15.88S330.38,58.58,323.43,58.19Z"/><path class="cls-1" d="M419.27,25.14c.91-1.37,1.07-1.54,2.27-1.54h6.17c2,0,2.61.4,2.61,1.59,0,.91-.46,1.36-1.42,1.53l-.91.17c-1.13.17-1.3.57-1.3,2.89V55.33c0,2.38.17,2.72,1.3,2.89l.91.17c1,.17,1.47.68,1.47,1.53,0,1.19-.68,1.59-2.66,1.59h-10c-2,0-2.66-.4-2.66-1.59,0-.85.51-1.36,1.47-1.53l.91-.17c1.13-.17,1.3-.51,1.3-2.89V34.88l-8.61,13.77a2.47,2.47,0,0,1-1.93,1.3c-.62,0-1-.28-1.7-1.3L397,34.54V55.33c0,2.38.17,2.72,1.31,2.89l1,.17a1.48,1.48,0,0,1,1.47,1.53c0,1.19-.68,1.59-2.67,1.59h-6.85c-2,0-2.66-.4-2.66-1.59,0-.85.51-1.36,1.47-1.53l1-.17c1.14-.17,1.31-.51,1.31-2.89V29.78c0-2.32-.17-2.72-1.31-2.89l-1-.17a1.39,1.39,0,0,1-1.42-1.53c0-1.19.62-1.59,2.6-1.59h5.61c1.25,0,1.36.06,2.32,1.54l10.32,15.29Z"/><path class="cls-1" d="M496.28,58c-1.54-.34-2-.8-3.47-3.07l-7.35-12c5.07-1.36,7.74-4.67,7.74-9.57,0-7-5.08-10.56-14.66-10.56-2.79,0-12,.5-13.37.8a1.73,1.73,0,0,0-1.54,1.94c0,.91.63,1.42,1.77,1.54,1.42.06,1.76.46,1.76,1.77V55.3c0,.5,0,.91,0,1.24-.13.76-.77,1.45-2.44,1.45a2.13,2.13,0,0,1-1.59-.53,3.38,3.38,0,0,1-.61-1c0-.11-.46-1.19-.67-1.8L452.22,27c-1-3-1.83-3.87-3.54-3.87a2.65,2.65,0,0,0-2.27,1.14,9.66,9.66,0,0,0-1.2,2.73L435.5,55.24c-.86,2.56-1.15,2.85-2.68,3.13a1.51,1.51,0,0,0-1.54,1.6c0,1.08.57,1.54,1.94,1.54h8c1.2,0,1.94-.63,1.94-1.6s-.46-1.42-2-1.59c-1.14-.17-1.65-.57-1.65-1.31a6.06,6.06,0,0,1,.34-1.6l1.08-3.3c.58-1.88.69-2,2.4-2h7.35c1.59,0,1.77.17,2.33,2l1,3.3a6.41,6.41,0,0,1,.29,1.6c0,.85-.52,1.19-1.77,1.31-1.54.17-2.16.63-2.16,1.71a1.48,1.48,0,0,0,1.65,1.48h24.09c2,0,2.68-.4,2.68-1.6,0-.85-.52-1.36-1.49-1.54l-1-.17c-1.13-.17-1.31-.51-1.31-2.9V34.5l.06-2.73c0-2.28.29-3.42.91-4.16a4.21,4.21,0,0,1,3.14-1.14c3.42,0,5.58,2.84,5.58,7.29s-1.71,6.61-5.64,7.12c-1.48.17-2.17.74-2.17,1.77a6.28,6.28,0,0,0,1.09,2.68l8.6,14.53a3,3,0,0,0,3,1.65h6.55c1.49,0,2.28-.57,2.28-1.71s-.39-1.37-2.22-1.77M442.79,46.3,447,32.9l4.16,13.4Z"/><path class="cls-1" d="M531.85,58.26c-1.37-.17-1.88-.57-3.48-3L517.49,38.89l6.84-8.83c2-2.51,2.62-3,4.5-3.42,1.31-.29,1.77-.69,1.77-1.6s-.58-1.54-1.77-1.54h-9.46c-1.2,0-2,.63-2,1.6s.57,1.48,2.27,1.71c.75.05,1.15.4,1.15.85s-.29.91-1.09,1.94l-8.23,10.52V29.71c0-2.33.17-2.73,1.31-2.9l1-.17a1.46,1.46,0,0,0,1.48-1.54c0-1.2-.69-1.6-2.68-1.6H502.42c-2,0-2.62.4-2.62,1.6a1.4,1.4,0,0,0,1.42,1.54l1,.17c1.14.17,1.31.57,1.31,2.9V55.3c0,2.39-.17,2.73-1.31,2.9l-1,.17c-1,.18-1.42.69-1.42,1.54,0,1.2.62,1.6,2.62,1.6h10.14c2,0,2.62-.4,2.62-1.6,0-.85-.46-1.36-1.42-1.54l-1-.17c-1.14-.17-1.31-.51-1.31-2.9V43.6l10.85,16.26a3.15,3.15,0,0,0,3,1.65h6.33c1.31,0,2.05-.57,2.05-1.65s-.57-1.49-1.88-1.6"/><path class="cls-1" d="M562.77,53.41a1.78,1.78,0,0,0-1.55,1.08c-.06.11-.16.37-.48,1-.71,1.48-2.14,2.11-4.18,2.11l-5.66,0a9,9,0,0,1-3.39-.4c-.9-.34-1.07-1-1.07-4V46c0-1.27.17-1.82.52-2.06s.68-.22,2.31-.22h2.64c2.39,0,2.73.17,2.9,1.31l.06.38c.17,1,.68,1.48,1.54,1.48,1.19,0,1.59-.68,1.59-2.68V39.47c0-2-.4-2.68-1.59-2.68-.86,0-1.37.46-1.54,1.43l0,.35c-.18,1.14-.52,1.31-2.91,1.31h-2.65c-1.63,0-2,0-2.31-.22s-.52-.78-.52-2.06V30.84c0-3,.34-3.44,3.45-3.44h5.37c2.64,0,3.79.19,4.35,1.65a10.38,10.38,0,0,0,.56,1.22,1.47,1.47,0,0,0,1.47.89c1,0,1.55-.79,1.24-2.25L561.32,25c-.23-1.05-.88-1.43-2-1.43h-22c-1.92,0-2.05.41-2.05,1.67a1.59,1.59,0,0,0,1.47,1.59h.58a1.09,1.09,0,0,1,.91.85,5.28,5.28,0,0,1,.23,2.23V55.33a5.43,5.43,0,0,1-.23,2.28,1.05,1.05,0,0,1-.91.73h-1.15a1.49,1.49,0,0,0-1.42,1.53c0,1.27.65,1.65,2.57,1.65H561.1c1.16,0,1.8-.38,2-1.42l.88-4.43c.3-1.46-.21-2.25-1.24-2.25"/><path class="cls-1" d="M594.31,28.9l-1.56-4c-.24-1-.88-1.42-2-1.42h-23c-1.15,0-1.8.38-2,1.42l-1.57,4c-.3,1.46.21,2.25,1.25,2.25a1.48,1.48,0,0,0,1.46-.89,8.13,8.13,0,0,0,.57-1.23c.55-1.44,1.69-1.64,4.29-1.64H572c3.13,0,3.47.23,3.47,2.51V55.31c0,2.34-.22,2.79-1.31,2.91l-1.54.17a1.51,1.51,0,0,0-1.48,1.54c0,1.19.69,1.59,2.68,1.59h11.28c2,0,2.68-.4,2.68-1.59a1.51,1.51,0,0,0-1.48-1.54l-1.59-.17c-1.09-.06-1.26-.57-1.26-2.91V30c0-1.91.18-2.47,1.67-2.62h1.58c2.65,0,3.8.18,4.36,1.64a7.53,7.53,0,0,0,.56,1.23,1.48,1.48,0,0,0,1.46.89c1,0,1.56-.79,1.25-2.25"/><path class="cls-2" d="M596.29,54.08a5.67,5.67,0,1,0,5.65,5.67A5.64,5.64,0,0,0,596.29,54.08Zm0,10.22a4.55,4.55,0,1,1,4.45-4.55A4.37,4.37,0,0,1,596.29,64.3Zm.91-4.12a1.71,1.71,0,0,0,1.69-1.93c0-1.35-.71-2-2.26-2h-2.48v6.61h1.13V60.22h.64l1.89,2.67h1.31Zm-1.92-1V57.31h1c.74,0,1.51.19,1.51.94s-.83.93-1.76.93Z"/></svg>